<?xml version="1.0" standalone="no"?>
<!DOCTYPE svg PUBLIC "-//W3C//DTD SVG 20010904//EN" "http://www.w3.org/TR/2001/REC-SVG-20010904/DTD/svg10.dtd">
<svg version="1.0" xmlns="http://www.w3.org/2000/svg" width="2000.000000pt" height="802.000000pt"
  viewBox="0 0 2000.000000 802.000000" preserveAspectRatio="xMidYMid meet">

  <g transform="translate(0.000000,802.000000) scale(0.100000,-0.100000)" fill="#000000" stroke="none">
    <path d="M3540 5173 c-8 -3 -23 -15 -32 -27 -16 -19 -18 -49 -18 -257 l0 -237
-76 -53 c-42 -30 -84 -58 -93 -64 -9 -5 -18 -12 -21 -15 -3 -3 -30 -23 -60
-45 -30 -22 -56 -43 -58 -47 -2 -5 -8 -8 -14 -8 -6 0 -43 -25 -83 -55 -39 -30
-75 -55 -79 -55 -13 0 -35 -27 -46 -55 -10 -27 0 -61 24 -78 17 -11 77 2 108
24 15 11 32 17 38 14 7 -4 10 -219 10 -620 0 -544 2 -615 16 -629 14 -14 117
-16 988 -16 930 0 974 1 989 18 15 17 17 75 17 635 0 631 1 641 36 608 13 -12
83 -51 92 -51 24 0 52 43 52 79 0 36 -4 41 -62 80 -35 22 -79 54 -98 71 -19
16 -40 30 -47 30 -6 0 -13 4 -15 8 -3 7 -154 116 -258 186 -25 16 -47 33 -50
36 -3 4 -56 42 -118 86 -128 89 -133 92 -267 189 -54 39 -105 75 -114 80 -9 6
-18 13 -21 16 -18 20 -118 79 -136 79 -21 0 -126 -65 -132 -82 -2 -4 -8 -8
-13 -8 -6 0 -19 -9 -31 -20 -12 -11 -30 -20 -40 -20 -16 0 -18 10 -18 89 0
122 2 121 -200 120 -85 0 -162 -3 -170 -6z m234 -145 c3 -13 6 -56 6 -95 l0
-73 -42 -30 c-24 -17 -51 -37 -61 -45 -9 -8 -24 -15 -32 -15 -13 0 -15 22 -15
133 0 74 3 137 7 140 3 4 34 7 69 7 56 0 62 -2 68 -22z m426 -119 c0 -3 11
-11 24 -17 14 -6 33 -18 43 -26 10 -8 72 -54 138 -101 66 -47 129 -92 140
-100 11 -7 122 -87 248 -175 l227 -162 0 -623 0 -623 -22 -5 c-29 -8 -464 -8
-483 -1 -13 5 -15 60 -15 384 0 371 0 377 -21 396 -20 18 -40 19 -333 19 -279
0 -314 -2 -329 -17 -15 -15 -17 -54 -17 -392 0 -361 -1 -376 -19 -386 -21 -11
-427 -14 -480 -4 l-31 7 0 622 0 623 53 38 c28 21 54 42 55 46 2 5 10 8 17 8
7 0 15 3 17 8 2 4 28 24 58 45 116 79 213 148 228 163 8 9 25 20 36 25 12 5
37 22 57 37 51 38 220 159 292 209 60 42 61 42 89 25 15 -9 28 -19 28 -23z
m162 -1498 c-1 -178 -4 -327 -7 -330 -9 -8 -371 -14 -401 -7 l-24 6 0 330 0
330 217 -2 217 -3 -2 -324z" />
    <path d="M4010 4593 c-112 -54 -170 -150 -170 -284 0 -61 5 -89 21 -121 25
-49 106 -138 125 -138 8 0 14 -4 14 -10 0 -5 10 -10 23 -10 13 0 28 -5 34 -11
6 -6 44 -11 86 -11 93 1 153 26 218 92 66 68 89 123 89 215 0 41 -4 83 -9 93
-5 9 -16 33 -25 52 -20 48 -73 99 -135 133 -44 23 -62 27 -133 27 -69 -1 -93
-5 -138 -27z m180 -113 c42 -11 110 -72 110 -98 0 -10 5 -23 12 -30 20 -20
-10 -120 -47 -156 -43 -43 -116 -63 -164 -46 -58 21 -92 50 -112 97 -33 76
-21 130 43 192 47 45 96 58 158 41z" />
    <path d="M5903 5143 l-28 -36 -3 -1029 c-2 -946 -1 -1032 14 -1066 22 -48 52
-72 90 -72 33 0 67 28 82 70 15 41 15 2061 0 2096 -22 52 -48 74 -89 74 -32 0
-42 -6 -66 -37z" />
    <path d="M7220 4733 c-101 -17 -260 -69 -260 -85 0 -5 -5 -8 -12 -8 -11 0 -93
-59 -133 -96 -63 -58 -175 -241 -175 -287 0 -9 -4 -25 -9 -35 -26 -49 -36
-147 -36 -352 0 -246 10 -313 67 -440 34 -76 50 -103 97 -163 46 -57 175 -157
205 -157 8 0 17 -4 20 -9 3 -5 16 -11 28 -14 13 -3 58 -15 102 -26 140 -37
416 -27 551 21 113 39 212 115 241 184 16 38 19 180 5 218 -9 23 -15 25 -89
28 -139 5 -155 0 -229 -75 -43 -44 -74 -67 -89 -67 -13 0 -26 -4 -29 -10 -7
-12 -188 -13 -213 -2 -9 5 -38 19 -63 31 -74 36 -134 107 -177 211 -45 111
-58 236 -42 408 7 73 17 135 22 138 4 3 8 14 8 24 0 10 12 42 28 69 80 145
222 218 369 191 83 -16 106 -28 165 -86 38 -38 58 -49 96 -55 61 -10 164 -11
179 -1 22 14 33 63 33 145 0 66 -4 89 -21 117 -53 87 -168 153 -307 176 -80
13 -272 17 -332 7z" />
    <path d="M16185 4593 c-51 -35 -125 -109 -125 -126 0 -7 -4 -17 -10 -23 -5 -5
-10 -52 -12 -104 l-3 -95 -77 -3 c-98 -4 -103 -9 -104 -121 -2 -137 -3 -135
97 -141 l84 -5 6 -305 c7 -302 9 -337 31 -415 19 -67 86 -147 148 -177 70 -34
114 -40 251 -35 142 5 232 25 248 55 11 21 -42 189 -69 216 -16 16 -21 17 -54
5 -46 -17 -122 1 -145 34 -40 56 -41 63 -41 348 l0 279 118 0 c78 0 122 4 130
12 16 16 16 220 0 236 -8 8 -52 12 -130 12 l-118 0 0 103 c0 99 -1 106 -29
145 -17 22 -46 53 -67 69 -20 15 -44 36 -53 46 -21 23 -29 22 -76 -10z" />
    <path d="M8540 4251 c-112 -25 -223 -84 -296 -157 -92 -92 -134 -194 -153
-364 -10 -97 2 -237 28 -320 41 -130 141 -245 262 -303 125 -58 183 -69 354
-64 152 3 210 13 278 48 22 10 43 19 49 19 12 0 138 91 138 99 0 3 13 21 29
40 36 42 77 121 99 192 20 67 23 359 4 428 -22 78 -75 173 -121 221 -46 47
-131 110 -149 110 -5 0 -23 7 -41 16 -107 53 -327 69 -481 35z m314 -286 c93
-46 125 -123 125 -305 1 -174 -40 -281 -119 -316 -120 -53 -236 -41 -322 34
-64 57 -95 232 -69 388 13 72 64 174 88 174 7 0 13 4 13 9 0 16 96 40 164 40
54 1 80 -4 120 -24z" />
    <path d="M10835 4244 c-16 -14 -47 -40 -68 -57 -68 -57 -79 -85 -71 -174 8
-96 47 -251 83 -338 88 -207 132 -288 228 -423 48 -66 65 -87 114 -139 21 -23
39 -45 39 -48 0 -12 -79 -121 -106 -147 -60 -55 -137 -88 -224 -95 l-82 -6
-54 -54 c-67 -67 -71 -111 -17 -171 7 -7 18 -21 25 -30 27 -35 61 -44 164 -39
54 2 117 9 139 14 42 10 167 72 173 85 2 5 10 8 18 8 8 0 14 4 14 8 0 4 13 15
29 25 39 23 146 135 195 204 22 32 44 60 48 61 5 2 8 10 8 18 0 8 5 14 10 14
6 0 10 5 10 10 0 6 15 34 33 63 35 55 147 280 147 295 0 5 6 22 14 38 32 66
55 123 75 189 13 39 26 79 31 90 5 11 11 34 13 50 3 17 11 48 17 70 18 62 29
122 42 227 13 109 10 122 -46 178 -44 44 -116 100 -128 100 -17 0 -102 -67
-146 -114 -46 -50 -49 -58 -56 -166 -5 -72 -14 -123 -36 -220 -6 -25 -15 -63
-19 -85 -17 -84 -90 -285 -103 -285 -19 0 -104 117 -143 198 -25 51 -45 97
-45 103 0 5 -4 17 -9 27 -28 52 -71 245 -71 317 0 52 -11 75 -59 123 -38 39
-126 102 -142 102 -8 0 -27 -12 -44 -26z" />
    <path d="M12218 4233 c-117 -103 -109 -55 -110 -632 0 -366 3 -504 12 -520 11
-22 15 -22 164 -19 111 2 158 7 169 17 15 12 17 52 17 383 0 321 2 374 16 404
40 83 149 129 247 104 29 -7 60 -20 71 -29 31 -26 63 -84 71 -126 4 -22 10
-197 14 -388 5 -293 8 -349 21 -357 20 -13 271 -13 304 0 l26 10 0 427 c0 428
-1 445 -37 534 -25 62 -104 147 -164 175 -85 41 -142 54 -229 54 -124 0 -237
-40 -300 -105 -19 -19 -38 -35 -42 -35 -5 0 -40 32 -79 70 -85 85 -107 89
-171 33z" />
    <path d="M13922 4251 c-80 -23 -137 -48 -187 -82 -43 -29 -125 -108 -125 -121
0 -4 -7 -16 -16 -27 -20 -22 -36 -65 -70 -176 -45 -150 -29 -372 37 -520 27
-62 146 -182 209 -211 47 -22 116 -46 187 -64 68 -17 316 -14 403 5 89 20 215
78 236 109 22 35 46 126 40 152 -7 25 -28 40 -86 61 -61 22 -102 16 -186 -29
l-79 -42 -116 -1 c-123 0 -134 3 -217 58 -46 31 -78 83 -84 137 l-3 35 295 6
c281 6 297 7 340 29 25 12 52 26 60 30 8 4 26 27 40 51 23 40 25 54 23 147 -2
147 -39 238 -135 331 -35 34 -56 51 -64 51 -3 0 -18 8 -32 18 -91 62 -340 90
-470 53z m274 -253 c52 -26 94 -96 94 -157 0 -58 -16 -62 -239 -59 l-186 3 3
35 c3 41 46 132 75 157 60 55 168 64 253 21z" />
    <path d="M15195 4259 c-22 -5 -76 -21 -120 -37 -69 -23 -89 -36 -146 -92 -52
-51 -68 -75 -79 -115 -20 -70 -18 -210 3 -257 18 -39 87 -115 122 -134 50 -27
64 -34 125 -62 36 -16 90 -37 120 -47 30 -10 59 -21 65 -26 5 -5 16 -9 24 -9
22 0 71 -61 71 -89 0 -42 -40 -79 -105 -96 -91 -23 -175 -6 -267 56 -31 22
-61 39 -66 39 -9 0 -62 -55 -62 -65 0 -3 -20 -34 -45 -71 -25 -36 -45 -68 -45
-72 0 -14 16 -29 60 -59 92 -62 185 -83 359 -84 171 -1 289 31 386 105 106 80
135 140 135 282 0 177 -63 251 -285 334 -214 81 -254 106 -255 162 0 66 41 92
147 92 62 -1 78 -5 115 -29 51 -34 117 -37 179 -10 46 21 53 39 44 108 -14
105 -42 133 -174 173 -50 16 -243 17 -306 3z" />
    <path d="M9579 4217 c-39 -34 -79 -92 -79 -113 0 -10 23 -43 51 -71 l50 -53
235 -2 234 -3 -55 -73 c-30 -40 -55 -77 -55 -82 0 -5 -3 -10 -8 -12 -4 -1 -25
-25 -47 -53 -22 -27 -44 -55 -50 -61 -5 -6 -21 -26 -35 -44 -70 -93 -214 -276
-221 -280 -4 -3 -28 -39 -53 -80 -52 -84 -57 -118 -24 -166 41 -59 35 -59 493
-62 231 -2 430 0 442 3 26 6 133 111 133 130 0 7 -27 40 -60 74 l-60 61 -240
0 c-132 0 -240 3 -240 6 0 8 20 44 35 62 8 9 41 53 74 97 34 44 65 85 70 91
14 17 183 238 206 270 11 15 42 55 68 88 109 136 117 233 25 282 -22 11 -103
14 -445 14 l-418 0 -26 -23z" />
  </g>
</svg>
