<svg width="16" height="16" viewBox="0 0 16 16" fill="none" xmlns="http://www.w3.org/2000/svg">
<g id="Group">
<path id="Vector" d="M0.667505 3.16715H2.49132C2.85129 4.49158 4.21675 5.27344 5.54118 4.91348C6.39181 4.68228 7.05631 4.01779 7.2875 3.16715H15.3327C15.7009 3.16715 15.9993 2.86871 15.9993 2.50056C15.9993 2.13241 15.7009 1.83397 15.3327 1.83397H7.2875C6.92754 0.509511 5.56208 -0.272348 4.23765 0.0876158C3.38702 0.318812 2.72252 0.983308 2.49132 1.83394H0.667505C0.299355 1.83394 0.000915527 2.13238 0.000915527 2.50053C0.000915527 2.86868 0.299355 3.16715 0.667505 3.16715Z" fill="#858D9D"/>
<path id="Vector_2" d="M15.3327 7.33362H13.5089C13.1496 6.00938 11.7849 5.22708 10.4607 5.5863C9.60936 5.81724 8.94431 6.48227 8.71336 7.33362H0.667505C0.299355 7.33362 0.000915527 7.63206 0.000915527 8.00021C0.000915527 8.36836 0.299355 8.6668 0.667505 8.6668H8.71336C9.07261 9.99104 10.4373 10.7733 11.7616 10.4141C12.6129 10.1832 13.2779 9.51815 13.5089 8.6668H15.3327C15.7009 8.6668 15.9993 8.36836 15.9993 8.00021C15.9993 7.63206 15.7009 7.33362 15.3327 7.33362Z" fill="#858D9D"/>
<path id="Vector_3" d="M15.3327 12.833H7.2875C6.92754 11.5085 5.56208 10.7267 4.23765 11.0866C3.38702 11.3178 2.72252 11.9823 2.49132 12.833H0.667505C0.299355 12.833 0.000915527 13.1314 0.000915527 13.4996C0.000915527 13.8677 0.299355 14.1661 0.667505 14.1661H2.49132C2.85129 15.4906 4.21675 16.2724 5.54118 15.9125C6.39181 15.6813 7.05631 15.0168 7.2875 14.1661H15.3327C15.7009 14.1661 15.9993 13.8677 15.9993 13.4996C15.9993 13.1314 15.7009 12.833 15.3327 12.833Z" fill="#858D9D"/>
</g>
</svg>